<?xml version="1.0" encoding="UTF-8" standalone="no"?>
<!-- Created with Inkscape (http://www.inkscape.org/) -->
<svg
   xmlns:dc="http://purl.org/dc/elements/1.1/"
   xmlns:cc="http://web.resource.org/cc/"
   xmlns:rdf="http://www.w3.org/1999/02/22-rdf-syntax-ns#"
   xmlns:svg="http://www.w3.org/2000/svg"
   xmlns="http://www.w3.org/2000/svg"
   xmlns:sodipodi="http://sodipodi.sourceforge.net/DTD/sodipodi-0.dtd"
   xmlns:inkscape="http://www.inkscape.org/namespaces/inkscape"
   version="1.0"
   width="600"
   height="600"
   id="svg1350"
   sodipodi:version="0.32"
   inkscape:version="0.45.1"
   sodipodi:docname="Flag_of_France_(XIV-XVI).svg"
   inkscape:output_extension="org.inkscape.output.svg.inkscape"
   sodipodi:docbase="C:\flags">
  <metadata
     id="metadata33">
    <rdf:RDF>
      <cc:Work
         rdf:about="">
        <dc:format>image/svg+xml</dc:format>
        <dc:type
           rdf:resource="http://purl.org/dc/dcmitype/StillImage" />
      </cc:Work>
    </rdf:RDF>
  </metadata>
  <sodipodi:namedview
     inkscape:window-height="968"
     inkscape:window-width="1280"
     inkscape:pageshadow="2"
     inkscape:pageopacity="0.0"
     guidetolerance="10.0"
     gridtolerance="10.0"
     objecttolerance="10.0"
     borderopacity="1.0"
     bordercolor="#666666"
     pagecolor="#ffffff"
     id="base"
     inkscape:zoom="1.28"
     inkscape:cx="300"
     inkscape:cy="300"
     inkscape:window-x="-4"
     inkscape:window-y="-4"
     inkscape:current-layer="svg1350" />
  <defs
     id="defs1352" />
  <rect
     width="600"
     height="600"
     x="1.2741699e-010"
     y="0"
     style="fill:#000099;fill-opacity:1;fill-rule:nonzero;stroke:none;stroke-width:0.39824042;stroke-linecap:round;stroke-linejoin:miter;stroke-miterlimit:4;stroke-dasharray:none;stroke-dashoffset:0;stroke-opacity:1"
     id="rect2395" />
  <path
     d="M 145.10501,11.024376 C 112.44066,42.844072 90.821606,88.11429 120.67494,155.00585 C 129.40149,177.03369 133.9056,205.20914 133.66966,231.93458 L 126.91241,231.93458 C 121.2186,182.09591 107.42041,119.14043 55.701354,119.14043 C 33.577901,119.14043 17.496886,138.73236 17.496886,156.56521 C 17.496886,185.18554 34.650829,206.71011 69.215862,218.42007 C 63.978386,203.08419 59.825565,179.17605 75.193432,179.17603 C 98.920913,179.17603 109.72462,207.7666 110.01927,231.93458 L 107.68023,231.93458 C 103.07282,231.93458 99.363605,235.64379 99.363605,240.2512 C 99.363605,244.85861 103.07282,248.56782 107.68023,248.56782 L 124.31346,248.56782 C 116.38257,269.52299 102.42595,277.55886 91.046988,283.13378 C 108.45434,291.37531 128.32407,282.45712 132.1103,278.19577 C 131.64981,284.15319 131.49512,300.32941 133.66966,311.20236 C 135.14237,319.96992 138.81141,324.99876 145.10501,331.9939 C 151.39861,324.99876 155.06766,319.96992 156.54037,311.20236 C 158.71491,300.32941 158.04043,284.15319 157.57994,278.19577 C 161.36617,282.45712 181.75569,291.37531 199.16304,283.13378 C 187.78524,277.55942 173.82787,269.51835 165.89656,248.56782 L 182.5298,248.56782 C 187.13721,248.56782 190.84642,244.85861 190.84642,240.2512 C 190.84642,235.64379 187.13721,231.93458 182.5298,231.93458 L 179.93086,231.93458 C 180.22543,207.7666 191.02922,179.17603 214.7567,179.17603 C 230.12457,179.17605 225.97175,203.08419 220.73427,218.42007 C 255.29931,206.71011 272.45326,185.18554 272.45326,156.56521 C 272.45326,138.73236 256.37223,119.14043 234.24878,119.14043 C 182.52972,119.14043 168.73153,182.09591 163.03772,231.93458 L 156.02058,231.93458 C 155.78455,205.20898 160.28866,177.03383 169.01529,155.00585 C 198.86863,88.11429 177.76937,42.844072 145.10501,11.024376 z "
     style="font-size:12px;fill:#ffd700;fill-rule:evenodd;stroke:none;stroke-width:1.28750002;stroke-opacity:1"
     id="path2447" />
  <path
     d="M 455.06831,11.024397 C 422.40396,42.84409 400.78491,88.114305 430.63825,155.00587 C 439.36478,177.03371 443.86889,205.20916 443.63297,231.9346 L 436.8757,231.9346 C 431.18191,182.09592 417.38371,119.14044 365.66466,119.14044 C 343.54119,119.14044 327.46018,138.73238 327.46018,156.56523 C 327.46018,185.18556 344.61413,206.71013 379.17917,218.42009 C 373.94168,203.08421 369.78886,179.17607 385.15674,179.17604 C 408.88422,179.17604 419.68791,207.76662 419.98258,231.9346 L 417.64353,231.9346 C 413.03611,231.9346 409.32692,235.64381 409.32692,240.25121 C 409.32692,244.85862 413.03611,248.56784 417.64353,248.56784 L 434.27677,248.56784 C 426.34586,269.52301 412.38926,277.55888 401.0103,283.1338 C 418.41762,291.37533 438.28736,282.45713 442.07359,278.19579 C 441.6131,284.15321 441.45842,300.32943 443.63297,311.20238 C 445.10567,319.96994 448.77472,324.99878 455.06831,331.99392 C 461.3619,324.99878 465.03095,319.96994 466.50365,311.20238 C 468.67821,300.32943 468.00374,284.15321 467.54324,278.19579 C 471.32947,282.45713 491.719,291.37533 509.12633,283.1338 C 497.74854,277.55944 483.79116,269.51836 475.85986,248.56784 L 492.49309,248.56784 C 497.10052,248.56784 500.80971,244.85862 500.80971,240.25121 C 500.80971,235.64381 497.10052,231.9346 492.49309,231.9346 L 489.89416,231.9346 C 490.18872,207.76662 500.99252,179.17604 524.72001,179.17604 C 540.08785,179.17607 535.93504,203.08421 530.69758,218.42009 C 565.26261,206.71013 582.41654,185.18556 582.41654,156.56523 C 582.41654,138.73238 566.33552,119.14044 544.21209,119.14044 C 492.493,119.14044 478.69483,182.09592 473.00101,231.9346 L 465.98386,231.9346 C 465.74785,205.209 470.25197,177.03385 478.97858,155.00587 C 508.83192,88.114305 487.73267,42.84409 455.06831,11.024397 z "
     style="font-size:12px;fill:#ffd700;fill-rule:evenodd;stroke:none;stroke-width:1.28750002;stroke-opacity:1"
     id="path2463" />
  <path
     d="M 300.08663,265.09804 C 267.42228,296.91775 245.80323,342.18793 275.65657,409.0795 C 284.38313,431.10731 288.88724,459.28276 288.65129,486.00822 L 281.89405,486.00822 C 276.20023,436.16955 262.40203,373.2141 210.68298,373.2141 C 188.55952,373.2141 172.4785,392.80606 172.4785,410.63887 C 172.4785,439.25919 189.63246,460.78378 224.19749,472.49374 C 218.96,457.15781 214.80718,433.24967 230.17506,433.24967 C 253.90254,433.24967 264.70626,461.84023 265.0009,486.00822 L 262.66185,486.00822 C 258.05446,486.00822 254.34524,489.71744 254.34524,494.32484 C 254.34524,498.93226 258.05446,502.64149 262.66185,502.64149 L 279.29509,502.64149 C 271.36421,523.5966 257.40758,531.63256 246.02862,537.20742 C 263.43597,545.44895 283.30571,536.53079 287.09191,532.26944 C 286.63142,538.22686 286.47674,554.40302 288.65129,565.276 C 290.12399,574.04356 293.79304,579.07237 300.08663,586.06757 C 306.38025,579.07237 310.04927,574.04356 311.522,565.276 C 313.69653,554.40302 313.02205,538.22686 312.56156,532.26944 C 316.34779,536.53079 336.73732,545.44895 354.14467,537.20742 C 342.76686,531.63304 328.8095,523.59194 320.87817,502.64149 L 337.51144,502.64149 C 342.11883,502.64149 345.82806,498.93226 345.82806,494.32484 C 345.82806,489.71744 342.11883,486.00822 337.51144,486.00822 L 334.91248,486.00822 C 335.20706,461.84023 346.01084,433.24967 369.73832,433.24967 C 385.1062,433.24967 380.95335,457.15781 375.71589,472.49374 C 410.28092,460.78378 427.43488,439.25919 427.43488,410.63887 C 427.43488,392.80606 411.35386,373.2141 389.2304,373.2141 C 337.51135,373.2141 323.71315,436.16955 318.01936,486.00822 L 311.00221,486.00822 C 310.76617,459.28261 315.27028,431.10749 323.99693,409.0795 C 353.85027,342.18793 332.75098,296.91775 300.08663,265.09804 z "
     style="font-size:12px;fill:#ffd700;fill-rule:evenodd;stroke:none;stroke-width:1.28750002;stroke-opacity:1"
     id="path2479" />
</svg>
