<svg id="Layer_1" data-name="Layer 1" xmlns="http://www.w3.org/2000/svg" viewBox="0 0 130.89 181.63"><defs><style>.cls-1{fill:#c1272d;}.cls-2{fill:#fff;}.cls-3{fill:none;}.cls-4{fill:#294784;}.cls-5{fill:#fbb03b;}.cls-6{opacity:0.15;}</style></defs><line class="cls-1" x1="75.6" y1="175.11" x2="65.44" y2="181.63"/><line class="cls-1" x1="65.44" y1="181.63" x2="55.29" y2="175.11"/><polygon class="cls-1" points="0 115.7 0 0 65.44 0 130.89 0 130.89 115.7 130.89 138.15 65.44 181.63 0 138.37 0 115.7"/><polygon class="cls-2" points="130.89 61.93 75.6 61.93 75.6 0 65.44 0 55.29 0 55.29 61.93 0 61.93 0 81.78 55.29 81.78 55.29 175.11 65.44 181.63 75.6 175.11 75.6 81.78 130.89 81.78 130.89 61.93"/><line class="cls-3" x2="130.89"/><line class="cls-3" y1="138.37" x2="130.89" y2="138.15"/><rect class="cls-4" width="55.29" height="61.93"/><polygon class="cls-4" points="130.89 81.78 75.6 81.78 75.6 174.88 130.89 138.15 130.89 81.78"/><polygon class="cls-5" points="65.44 96.15 46.89 96.15 37.7 67.16 55.29 72.13 65.44 54.07 75.6 72.63 92.07 67.16 83.33 96.15 65.44 96.15"/><polygon class="cls-6" points="65.44 0 65.44 181.63 130.89 138.15 130.89 0 65.44 0"/></svg>