<svg id="Layer_1" data-name="Layer 1" xmlns="http://www.w3.org/2000/svg" viewBox="0 0 130.89 181.96"><defs><style>.cls-1{fill:#c1272d;}.cls-2{fill:#662d91;}.cls-3{fill:#fbb03b;}.cls-4{fill:#fff;}.cls-5{fill:#1a1a1a;opacity:0.15;}</style></defs><polygon class="cls-1" points="105.69 14.4 83 8.26 65.44 0.33 65.44 0 47.89 7.93 25.2 14.07 0 18.59 0 98.37 3.35 113.78 13.12 134.22 27.64 152.3 41.33 164.44 55.29 175.11 65.44 181.63 65.44 181.96 75.6 175.44 89.56 164.78 103.25 152.63 117.77 134.56 127.54 114.11 130.89 98.7 130.89 18.93 105.69 14.4"/><polygon class="cls-2" points="65.44 71.63 65.44 0.33 83 8.26 105.69 14.4 130.89 18.93 130.89 71.63 65.44 71.63"/><polygon class="cls-3" points="9.57 16.87 9.57 71.63 0 71.63 0 18.59 9.57 16.87"/><polygon class="cls-3" points="19.46 71.63 19.46 15.1 25.2 14.07 30.59 12.61 30.59 71.63 19.46 71.63"/><polygon class="cls-3" points="42.49 71.63 42.49 9.39 47.89 7.93 53.54 5.38 53.54 71.63 42.49 71.63"/><polygon class="cls-3" points="65.44 71.63 130.89 71.63 130.89 98.7 127.54 114.11 117.77 134.56 103.25 152.63 89.56 164.78 77.52 173.98 65.44 181.63 65.44 71.63"/><polygon class="cls-1" points="77.52 71.63 77.52 173.98 89.56 164.78 89.56 71.63 77.52 71.63"/><polygon class="cls-1" points="100.93 71.63 100.93 154.69 103.25 152.63 110.85 143.16 110.85 71.63 100.93 71.63"/><polygon class="cls-1" points="121.55 126.63 121.55 71.63 130.89 71.63 130.89 98.7 127.54 114.11 121.55 126.63"/><polygon class="cls-4" points="89.56 71.63 89.56 44.25 65.44 44.25 65.44 33.19 89.56 33.19 89.56 10.04 100.93 13.11 100.93 33.19 130.89 33.19 130.89 44.25 100.93 44.25 100.93 71.63 89.56 71.63"/><polygon class="cls-2" points="3.52 114.13 13.12 134.22 27.64 152.3 30.59 154.91 30.59 114.14 3.52 114.13"/><polygon class="cls-2" points="30.59 71.63 0 71.63 0 98.37 0.84 102.22 30.59 102.23 30.59 71.63"/><polygon class="cls-2" points="42.49 114.14 42.49 165.34 55.29 175.11 65.44 181.63 65.44 102.25 65.44 114.15 42.49 114.14"/><rect class="cls-2" x="42.49" y="71.63" width="22.95" height="30.61"/><rect class="cls-4" x="30.59" y="71.63" width="11.9" height="30.61"/><polygon class="cls-4" points="30.59 114.14 30.59 154.91 41.33 164.44 42.49 165.34 42.49 114.14 30.59 114.14"/><polygon class="cls-4" points="30.59 102.23 0.84 102.22 3.35 113.78 3.52 114.13 30.59 114.14 30.59 102.23"/><rect class="cls-4" x="42.49" y="102.24" width="22.95" height="11.9"/><rect class="cls-4" x="30.59" y="102.24" width="11.9" height="11.9"/><polygon class="cls-5" points="65.44 0.33 65.44 181.63 77.52 173.98 89.56 164.78 103.25 152.63 117.77 134.56 127.54 114.11 130.89 98.7 130.89 18.93 105.89 14.44 83.54 8.41 65.44 0.33"/></svg>