<svg id="Layer_1" data-name="Layer 1" xmlns="http://www.w3.org/2000/svg" viewBox="0 0 130.89 181.63"><defs><style>.cls-1{fill:#fff;}.cls-2{fill:#c1272d;}.cls-3{fill:#2e52a7;}.cls-4{fill:#1a1a1a;opacity:0.15;}.cls-5{fill:none;}</style></defs><polyline class="cls-1" points="65.44 181.63 55.29 175.11 41.33 164.44 27.64 152.3 13.12 134.22 3.35 113.78 0 98.37 0 13.7 65.44 0 130.89 13.37 130.89 98.37 127.54 113.78 117.77 134.22 103.25 152.3 89.56 164.44 75.6 175.11 65.44 181.63"/><polygon class="cls-2" points="130.89 61.93 75.6 61.93 75.6 2.05 65.44 0 55.29 2.05 55.29 61.93 0 61.93 0 81.78 55.29 81.78 55.29 175.11 65.44 181.63 75.6 175.11 75.6 81.78 130.89 81.78 130.89 61.93"/><polygon class="cls-3" points="75.6 2.05 130.89 13.37 130.89 61.93 75.6 61.93 75.6 2.05"/><polygon class="cls-3" points="55.29 81.78 0 81.78 0 98.37 3.35 113.78 13.12 134.22 27.64 152.3 41.33 164.44 55.29 175.11 55.29 81.78"/><polygon class="cls-4" points="65.44 0 65.44 181.63 75.6 175.11 89.56 164.44 103.25 152.3 117.77 134.22 127.54 113.78 130.89 98.37 130.89 13.37 65.44 0"/><line class="cls-5" y1="13.7" x2="130.89" y2="13.37"/></svg>