<svg id="lobby-nations" xmlns="http://www.w3.org/2000/svg" viewBox="0 0 960 810">
  <defs>
    <style>
      .cls-1, .cls-2 {
        fill: none;
      }

      .cls-2 {
        stroke: transparent;
        stroke-miterlimit: 10;
        stroke-width: 0.25px;
      }
    </style>
  </defs>
  <rect id="lobby-nations-border" class="cls-1" width="960" height="810"/>
  <g id="lobby-nations-kalmar">
    <polygon class="cls-2" points="202.96 87.67 196.15 78.19 199.56 74.33 196.15 72.85 200.89 68.11 192.89 68.11 191.11 58.63 187.85 58.63 186.37 63.37 176.3 63.37 173.63 65.15 171.56 58.63 168.59 58.63 165.93 64.85 165.93 57.44 158.81 55.96 155.85 60.7 151.41 52.41 145.19 60.7 139.85 59.81 135.7 61.59 135.7 54.78 140.15 52.41 141.63 45 137.19 35.22 133.93 35.22 132.74 44.41 128 39.07 122.96 39.07 115.26 45.59 108.74 46.19 111.41 49.44 116.15 50.93 127.41 53.89 129.48 58.63 122.67 58.63 123.26 63.07 104.89 59.22 104.89 61.44 110.52 64.26 114.07 66.63 116.74 74.63 113.78 82.93 103.7 82.63 101.93 85.89 117.93 90.93 120.3 96.56 134.22 112.26 143.11 112.26 149.04 108.41 160 112.26 166.81 108.41 184.59 107.22 186.07 103.07 192.59 103.96 198.22 98.33 202.96 87.67"/>
    <polygon class="cls-2" points="528.3 35.81 514.96 41.44 505.78 47.37 497.78 64.26 490.37 68.41 493.04 71.07 483.26 76.7 474.96 84.11 477.63 91.22 466.37 106.33 455.7 124.41 448.59 145.15 440 147.52 442.67 151.37 421.04 174.78 415.41 173 407.7 177.74 406.22 185.44 389.63 189.3 365.93 212.7 368.89 217.44 365.93 221 362.07 242.93 370.37 250.63 370.67 256.85 364.15 256.85 364.15 269.3 373.04 267.22 370.37 271.96 364.15 275.52 364.15 286.19 374.52 296.26 392.3 294.48 412.74 279.52 420.74 276.41 425.78 267.22 434.96 279.67 436.3 291.81 442.37 291.22 436.74 264.56 440 262.19 438.3 251.22 440 249.74 442.67 238.78 441.48 218.63 448.59 214.19 462.81 201.44 461.63 197.89 493.56 177.44 489.33 170.33 471.11 163.22 469.93 160.56 458.67 149.89 466.78 124.41 480 108.41 485.04 94.78 500.44 77.59 504 69 519.11 47.67 530.67 42.33 528.3 35.81"/>
    <polygon class="cls-2" points="455.78 357.74 447.33 341.89 450.22 330.33 440 306.56 446.22 308.11 460.22 334.33 462.67 342.11 470.89 336.56 480 333.89 493.56 336.33 490.89 341.89 480 342.78 472.67 347.44 471.56 357.74 455.78 357.74"/>
    <polygon class="cls-2" points="440.59 371.52 441.93 369.15 441.93 362.78 445.48 361.59 446.07 359.19 444.89 358.19 445.48 355.07 448.59 353.37 448.59 343.96 441.19 345 440.59 349.44 438.67 351.07 436.3 346.78 428 351.96 431.85 362.93 436.3 363.96 436.3 369.15 438.3 371.52 440.59 371.52"/>
    <polygon class="cls-2" points="428.74 372.7 428 369.15 431.85 369.15 436.3 370.93 436.3 375.52 428.74 372.7"/>
    <polygon class="cls-2" points="424.44 365 423.7 354.78 417.19 353.37 412.74 361.15 417.93 365 424.44 365"/>
    <polygon class="cls-2" points="431.85 381 428.44 388.26 424.15 390.19 420.59 395.07 413.78 396.85 399.7 389.74 401.48 383.67 394.81 382.19 401.33 374.78 395.56 364.56 397.33 356.11 388 348.56 392 327.96 399.7 318.33 409.93 317.44 419.26 309.89 422.67 315.52 421.63 319.81 418.96 330.19 426.81 335.52 424.89 340.11 419.7 341.59 414.81 349.44 408.3 365.89 411.85 372.26 411.7 376.56 423.56 383.37 426.96 379.07 431.85 381"/>
  </g>
  <g id="lobby-nations-england">
    <polygon class="cls-2" points="272.3 431.07 280 429 277.93 425.74 282.96 425.74 284.74 421.3 288.3 419.22 293.63 409.15 293.63 405 282.96 398.19 278.52 398.19 277.33 401.15 272.3 399.37 275.56 394.04 275.85 387.22 272.3 383.07 274.37 380.41 272.3 375.07 274.96 371.52 269.44 362.04 261.04 354.33 261.04 334.78 256.59 329.15 237.33 345.44 229.93 353.15 233.48 363.22 238.22 363.52 234.07 368.85 232 378.33 216.3 378.63 213.93 375.37 209.78 375.07 209.78 378.33 212.15 380.11 207.11 386.04 213.33 386.63 212.44 396.41 205.33 401.44 192.89 405 194.07 408.26 195.85 410.93 202.96 410.93 215.7 421.3 224.59 419.81 220.74 425.74 204.15 423.96 197.04 428.7 195.26 432.56 177.78 442.04 182.52 445.89 188.74 441.74 198.22 441.44 202.67 445.89 207.41 445.89 211.85 438.19 221.33 439.07 232 442.63 233.48 440.56 240 441.74 241.19 444.11 243.85 444.11 245.93 440.85 256.89 441.74 263.7 445.89 282.07 439.67 284.74 435.22 276.74 434.04 272.3 431.07"/>
    <polygon class="cls-2" points="188.74 370.63 180.22 373.89 176 357.59 190.81 355.22 188.74 370.63"/>
  </g>
  <g id="lobby-nations-austria">
    <polygon class="cls-2" points="344.44 550.78 335.47 547.94 348 508.56 351.7 506.63 353.78 510.19 363.56 514.33 360.3 520.26 363.56 522.04 354.67 539.22 344.44 550.78"/>
    <polygon class="cls-2" points="341.68 483.37 347.56 484.7 352.3 482.04 354.07 487.07 360.59 487.07 363.56 469.3 367.7 467.81 366.22 463.07 363.56 464.56 355.85 463.07 354.69 457.74 357.5 452.11 353.19 447.96 347.26 449.74 349.51 455.07 351.41 461.89 343.41 463.07 333.18 471.41 339.85 473.15 341.68 483.37"/>
    <polygon class="cls-2" points="289.78 445.89 312.89 437.59 324.74 427.52 349.51 425.74 345.48 438.78 339.26 439.96 335.47 453 339.85 458.33 333.18 462.19 325.33 459.22 321.78 460.7 323.52 468.9 289.78 460.11 289.78 445.89"/>
    <polygon class="cls-2" points="330.37 421.3 338.07 421.3 342.52 409.44 346.07 407.96 346.07 405 337.19 405 330.37 421.3"/>
    <polygon class="cls-2" points="367.7 521.44 363.56 514.33 370.67 504.11 363.56 498.33 363.56 493 370.67 495.22 377.78 493 372.89 484.56 375.56 481 381.33 483.67 384.89 476.56 391.56 479.67 394.67 476.56 401.78 474.33 404.89 487.07 397.78 487.07 395.11 489.89 399.11 490.78 397.78 494.33 392.44 495.22 395.56 506.63 392 510.33 395.56 521.44 388 525 381.33 513.44 377.78 516.11 377.78 520.11 367.7 521.44"/>
    <path class="cls-2" d="M622,718.37h4.44v-6l11.26,3v-13h7.11l1.78-6.27-6.52-2,9.78-7.12-3.55-9.11,3.55-6.83-5.33-12.52,5.33-5.41-1.18-8.54,4.74-5.41,10.66-6.84-5-12.24,3-4-7.11-2.57h-8l-19.56-4.27L622,616.17l-5.63.85-4.44-.57-4.45,26.48,2.67,4.27s-2.08,2.56-1.19,2.84,3.26,9.68,3.26,9.68l6.82-.28,2.37,1.42,8.59-.28v3.27H609.56l-2.08-2.7-22.22,2.7-2.07-1.56-3.56,1.56,3-8.68,3.26-1.71-3-3.7-9.19,2.85-3.55-2-15.26,1.71v5.13l-6.08,4.84v3.55h9.49l3.85,8,21.63,2.7,3-2.7,18.37,3,4.74-1.71,7.71,11.95-3.86,2.85-5.92-8.82-4.15,2,2.81,7.4,8.15,7.69-.89,11.1v4Z" transform="translate(-150 -135)"/>
  </g>
  <g id="lobby-nations-savoy">
    <polygon class="cls-2" points="355.56 613.89 360.89 613.89 363.56 605.89 363.56 602.33 372.89 596.11 379.11 586.78 379.11 578.33 376.89 573.89 385.78 573.89 388 569.89 375.56 554.33 365.33 556.56 359.82 546.63 364.44 546.78 367.56 544.56 365.33 537 354.67 539.22 344.44 550.78 335.47 547.94 327.8 547.24 326.99 558.01 358.67 577 358.67 585 345.33 592.56 352.22 600.11 348.89 605 355.56 613.89"/>
  </g>
  <g id="lobby-nations-sweden">
    <polygon class="cls-2" points="440 306.56 436.3 291.81 442.37 291.22 436.74 264.56 440 262.19 438.3 251.22 440 249.74 442.67 238.78 441.48 218.63 448.59 214.19 462.81 201.44 461.63 197.89 493.56 177.44 489.33 170.33 471.11 163.22 469.93 160.56 458.67 149.89 466.78 124.41 480 108.41 485.04 94.78 500.44 77.59 504 69 519.11 47.67 530.67 42.33 528.3 35.81 526 31.22 543.11 25.89 550 12.33 567.33 10.11 570 16.78 574.67 13 581.56 13.89 583.33 8.33 603.78 15 598.89 21.22 588 23.67 597.11 28.56 612.44 28.56 616.22 23 626.22 26.56 628 31 647.78 30.78 696.22 44.33 710.44 54.33 714.89 71 704.67 85 690.22 88.56 661.56 87.89 648.22 86.78 640.89 80.56 634 82.33 648.67 90.33 666.44 103.22 665.78 114.11 641.78 168.56 650.07 192.85 637.04 229 578.37 252.11 553.56 240.78 551.78 215 545.33 207.67 548.67 202.56 543.78 191.67 548.22 181 555.78 179 573.56 141.44 579.56 141.89 578.89 132.56 569.11 123 550 124.56 541.33 136.56 543.11 140.56 541.33 147.22 545.11 156.33 541.56 163.22 535.78 170.33 516.44 189.67 505.78 203 507.56 206.78 504.89 220.33 501.11 221 505.11 241.44 528 257.44 519.11 268.78 519.56 274.78 498.67 289.44 496.89 329.89 493.56 336.33 480 333.89 470.89 336.56 462.67 342.11 460.22 334.33 446.22 308.11 440 306.56"/>
  </g>
  <g id="lobby-nations-france">
    <polygon class="cls-2" points="355.56 613.89 348.89 605 352.22 600.11 345.33 592.56 358.67 585 358.67 577 326.99 558.01 327.8 547.24 335.47 547.94 348 508.56 343.88 490.73 339.41 491.25 337.52 485.98 341.68 483.37 339.85 473.15 289.78 460.11 289.78 445.89 285.33 447 282.44 460.78 275.56 465.22 268.44 466.11 259.11 470.11 259.11 474.56 254.89 477 238 471.22 236.89 464.78 229.56 464.56 229.56 487.22 216.67 484.56 212 486.33 206.22 478.11 188.44 478.11 180.22 481 184.67 486.11 180.22 491.22 182.44 496.56 188.89 497.44 209.33 510.56 207.56 513 213.33 515.89 212.89 524.56 216.22 535.89 225.78 541.44 222 549.22 224.22 558.78 220.89 558.56 208.44 593.44 220 598.33 217.33 613.89 277.78 628.11 284.44 619.89 298.22 611.44 309.78 619 316.22 618.33 329.11 627 339.56 625.89 355.56 613.89"/>
  </g>
  <g id="lobby-nations-portugal">
    <polygon class="cls-2" points="76.89 694.78 96.44 677.89 92.44 663.67 100 663.67 110.67 629.44 117.33 626.33 117.33 619.22 75.87 609.39 75.87 609.39 74.22 613.44 72.44 628.11 66.22 645 45.78 670.78 48.89 681.44 54.22 681.44 51.11 700.11 45.78 713.44 55.56 713.44 63.11 719.22 72.89 716.11 84 698.33 76.89 694.78"/>
  </g>
  <g id="lobby-nations-spain">
    <polygon class="cls-2" points="283.02 638.56 277.78 628.11 257.78 623.22 217.33 613.89 220 598.33 208.44 593.44 205.78 601 192.89 603.22 184 597.44 178.67 598.33 171.56 593.44 156.44 593.44 134.22 582.33 115.11 579.67 110.22 573.89 98.67 573.89 94.67 577.44 86.22 576.56 76.44 580.56 76.44 591.67 80 591.67 80.89 597 75.87 609.39 75.87 609.39 117.33 619.22 117.33 626.33 110.67 629.44 100 663.67 92.44 663.67 96.44 677.89 76.89 694.78 84 698.33 72.89 716.11 83.56 719.22 90.67 729.89 87.11 733 92.44 743.22 99.56 748.56 116 741.44 119.56 743.67 127.56 739.67 166.22 748.56 182.67 732.11 196 732.56 194.22 728.56 207.56 713.44 216.89 708.56 209.33 702.33 209.78 689.89 229.33 669.89 236 668.11 235.11 664.56 243.56 661.22 259.56 658.78 280.44 647.22 277.33 641 283.02 638.56"/>
  </g>
</svg>
